<?xml version="1.0" encoding="UTF-8" standalone="no"?>
<!-- Created with Inkscape (http://www.inkscape.org/) -->

<svg
   xmlns:dc="http://purl.org/dc/elements/1.1/"
   xmlns:cc="http://creativecommons.org/ns#"
   xmlns:rdf="http://www.w3.org/1999/02/22-rdf-syntax-ns#"
   xmlns:svg="http://www.w3.org/2000/svg"
   xmlns="http://www.w3.org/2000/svg"
   xmlns:sodipodi="http://sodipodi.sourceforge.net/DTD/sodipodi-0.dtd"
   xmlns:inkscape="http://www.inkscape.org/namespaces/inkscape"
   width="35.579334mm"
   height="12.003671mm"
   viewBox="0 0 35.579334 12.003671"
   version="1.1"
   id="svg8"
   inkscape:version="0.92.4 (5da689c313, 2019-01-14)"
   sodipodi:docname="Boxify_logo_1.svg">
  <defs
     id="defs2" />
  <sodipodi:namedview
     id="base"
     pagecolor="#ffffff"
     bordercolor="#666666"
     borderopacity="1.0"
     inkscape:pageopacity="0.0"
     inkscape:pageshadow="2"
     inkscape:zoom="1.979899"
     inkscape:cx="-21.891578"
     inkscape:cy="-23.669017"
     inkscape:document-units="mm"
     inkscape:current-layer="g949"
     showgrid="false"
     inkscape:window-width="1366"
     inkscape:window-height="705"
     inkscape:window-x="-8"
     inkscape:window-y="-8"
     inkscape:window-maximized="1"
     fit-margin-top="0"
     fit-margin-left="0"
     fit-margin-right="0"
     fit-margin-bottom="0" />
  <metadata
     id="metadata5">
    <rdf:RDF>
      <cc:Work
         rdf:about="">
        <dc:format>image/svg+xml</dc:format>
        <dc:type
           rdf:resource="http://purl.org/dc/dcmitype/StillImage" />
        <dc:title></dc:title>
      </cc:Work>
    </rdf:RDF>
  </metadata>
  <g
     inkscape:label="Layer 1"
     inkscape:groupmode="layer"
     id="layer1"
     transform="translate(-16.001723,-102.16089)">
    <g
       id="g949">
      <g
         id="g911">
        <flowRoot
           xml:space="preserve"
           id="flowRoot815"
           style="font-style:normal;font-weight:normal;font-size:40px;line-height:1.25;font-family:sans-serif;letter-spacing:0px;word-spacing:0px;fill:#000000;fill-opacity:1;stroke:none"
           transform="matrix(0.22258095,0,0,0.22258095,26.776066,54.02908)"><flowRegion
             id="flowRegion817"><rect
               id="rect819"
               width="480"
               height="164.28572"
               x="2.8571429"
               y="216.8054" /></flowRegion><flowPara
             id="flowPara821">B</flowPara></flowRoot>        <path
           style="opacity:1;fill:#800080;fill-opacity:1;fill-rule:evenodd;stroke-width:0.21769512;paint-order:stroke fill markers"
           d="m 35.914478,106.30296 a 2.1715648,2.1715648 0 0 0 -2.171444,2.17196 2.1715648,2.1715648 0 0 0 2.171444,2.17144 2.1715648,2.1715648 0 0 0 2.171446,-2.17144 2.1715648,2.1715648 0 0 0 -2.171446,-2.17196 z m 0,0.46819 a 1.7038431,1.7038431 0 0 1 1.703773,1.70377 1.7038431,1.7038431 0 0 1 -1.703773,1.70377 1.7038431,1.7038431 0 0 1 -1.703771,-1.70377 1.7038431,1.7038431 0 0 1 1.703771,-1.70377 z"
           id="path856"
           inkscape:connector-curvature="0" />
        <flowRoot
           transform="matrix(0.18663602,0,-0.03520591,0.18663602,47.666625,32.772833)"
           style="font-style:normal;font-weight:normal;font-size:40px;line-height:1.25;font-family:sans-serif;letter-spacing:0px;word-spacing:0px;fill:#000000;fill-opacity:1;stroke:none"
           id="flowRoot868"
           xml:space="preserve"><flowRegion
             id="flowRegion864"><rect
               y="379.66254"
               x="24.285715"
               height="74.285713"
               width="97.14286"
               id="rect862" /></flowRegion><flowPara
             id="flowPara866">xify</flowPara></flowRoot>        <path
           style="opacity:1;fill:#ff6600;fill-opacity:1;fill-rule:evenodd;stroke-width:0.24702762;paint-order:stroke fill markers"
           d="m 22.784346,102.16089 v 4.30206 a 3.1070081,3.1070081 0 0 1 0.367936,-0.0264 3.1070081,3.1070081 0 0 1 0.634587,0.0667 v -3.34037 h 13.361457 v 3.48196 a 2.8731472,2.8731472 0 0 1 0.202573,-0.007 2.8731472,2.8731472 0 0 1 0.86868,0.13539 v -4.61212 z m 3.269051,8.48578 a 3.1070081,3.1070081 0 0 1 -0.621151,1.00201 H 35.436287 A 2.8731472,2.8731472 0 0 1 34.7154,110.64667 Z"
           id="rect907"
           inkscape:connector-curvature="0" />
        <path
           inkscape:connector-curvature="0"
           id="path949"
           d="m 25.424149,106.16933 a 2.1715648,2.1715648 0 0 0 -2.171444,2.17196 2.1715648,2.1715648 0 0 0 2.171444,2.17144 2.1715648,2.1715648 0 0 0 2.171446,-2.17144 2.1715648,2.1715648 0 0 0 -2.171446,-2.17196 z m 0,0.46819 a 1.7038431,1.7038431 0 0 1 1.703773,1.70377 1.7038431,1.7038431 0 0 1 -1.703773,1.70377 1.7038431,1.7038431 0 0 1 -1.703771,-1.70377 1.7038431,1.7038431 0 0 1 1.703771,-1.70377 z"
           style="opacity:1;fill:#800080;fill-opacity:1;fill-rule:evenodd;stroke-width:0.21769512;paint-order:stroke fill markers" />
        <flowRoot
           xml:space="preserve"
           id="flowRoot823"
           style="font-style:normal;font-weight:normal;font-size:40px;line-height:1.25;font-family:sans-serif;letter-spacing:0px;word-spacing:0px;fill:#000000;fill-opacity:1;stroke:none"
           transform="matrix(0.26458333,0,-0.04990943,0.26458333,30.200583,1.8708866)"><flowRegion
             id="flowRegion825"><rect
               id="rect827"
               width="97.14286"
               height="74.285713"
               x="24.285715"
               y="379.66254" /></flowRegion><flowPara
             id="flowPara829">g</flowPara></flowRoot>        <g
           id="g965"
           transform="matrix(1.4783574,0,0,1.4783574,-10.309298,-71.545393)">
          <path
             inkscape:connector-curvature="0"
             id="path951"
             d="m 23.297466,121.73779 a 0.90514976,0.90514976 0 0 0 0.872575,0.66859 0.90514976,0.90514976 0 0 0 0.873436,-0.66859 h -0.204843 a 0.71019441,0.71019441 0 0 1 -0.668593,0.47366 0.71019441,0.71019441 0 0 1 -0.668809,-0.47366 z"
             style="opacity:1;fill:#800080;fill-opacity:1;fill-rule:evenodd;stroke-width:0.0907395;paint-order:stroke fill markers" />
          <circle
             r="0.16704336"
             cy="121.23687"
             cx="23.786991"
             id="circle956"
             style="opacity:1;fill:#800080;fill-opacity:1;fill-rule:evenodd;stroke-width:0.01674577;paint-order:stroke fill markers" />
          <circle
             style="opacity:1;fill:#800080;fill-opacity:1;fill-rule:evenodd;stroke-width:0.01674577;paint-order:stroke fill markers"
             id="circle960"
             cx="24.555389"
             cy="121.27028"
             r="0.16704336" />
        </g>
        <g
           id="g867"
           transform="matrix(0.76249617,0,0,0.76249617,9.4208009,18.054712)">
          <path
             inkscape:connector-curvature="0"
             id="path839"
             d="m 35.628699,119.26148 a 0.60135637,0.66817379 0 0 1 -0.355533,0.19844 0.64479368,0.21406253 59.484949 0 0 0.03411,0.0713 0.64479368,0.21406253 59.484949 0 0 0.529683,0.56586 0.64479368,0.21406253 59.484949 0 0 -0.04186,-0.56586 0.64479368,0.21406253 59.484949 0 0 -0.1664,-0.26975 z"
             style="opacity:1;fill:#d45500;fill-opacity:1;fill-rule:evenodd;stroke-width:0.26121357;paint-order:stroke fill markers" />
          <g
             id="g973"
             transform="matrix(1.4783574,0,0,1.4783574,-7.603194,-58.73316)">
            <path
               inkscape:transform-center-y="0.066817382"
               inkscape:transform-center-x="0.11693042"
               style="opacity:1;fill:#800080;fill-opacity:1;fill-rule:evenodd;stroke-width:0.02403091;paint-order:stroke fill markers"
               d="m 27.668054,120.15859 a 0.23971452,0.23971452 0 0 0 0.288501,-0.039 0.23971452,0.23971452 0 0 0 0.03756,-0.28887 l -0.03825,0.0385 a 0.18808369,0.18808369 0 0 1 -0.03591,0.214 0.18808369,0.18808369 0 0 1 -0.213844,0.0372 z"
               id="path852"
               inkscape:connector-curvature="0" />
            <path
               inkscape:connector-curvature="0"
               id="path854"
               d="m 27.668054,120.15859 a 0.23971452,0.23971452 0 0 0 0.288501,-0.039 0.23971452,0.23971452 0 0 0 0.03756,-0.28887 l -0.03825,0.0385 a 0.18808369,0.18808369 0 0 1 -0.03591,0.214 0.18808369,0.18808369 0 0 1 -0.213844,0.0372 z"
               style="opacity:1;fill:#800080;fill-opacity:1;fill-rule:evenodd;stroke-width:0.02403091;paint-order:stroke fill markers"
               inkscape:transform-center-x="0.11693042"
               inkscape:transform-center-y="0.066817382" />
          </g>
          <g
             transform="matrix(1.4783574,0,0,1.4783574,-0.90475146,-61.389152)"
             id="g981">
            <path
               inkscape:connector-curvature="0"
               id="path975"
               d="m 23.473143,121.78306 a 0.856242,0.86029557 0 0 1 -0.109411,0.1185 0.856242,0.86029557 0 0 1 -0.03461,0.0276 0.90514979,0.90514979 0 0 0 0.818305,0.52224 0.90514979,0.90514979 0 0 0 0.793484,-0.47155 0.85624198,0.86029556 0 0 1 -0.136325,-0.16814 0.71019445,0.71019445 0 0 1 -0.657159,0.44499 0.71019445,0.71019445 0 0 1 -0.668696,-0.47365 z m 1.536984,0 a 0.67182065,0.67500115 0 0 0 0.008,0.009 0.90514979,0.90514979 0 0 0 0.0028,-0.009 z"
               style="opacity:1;fill:#800080;fill-opacity:1;fill-rule:evenodd;stroke-width:0.0907395;paint-order:stroke fill markers" />
            <circle
               style="opacity:1;fill:#800080;fill-opacity:1;fill-rule:evenodd;stroke-width:0.01674577;paint-order:stroke fill markers"
               id="circle977"
               cx="23.786991"
               cy="121.23687"
               r="0.16704336" />
            <circle
               r="0.16704336"
               cy="121.27028"
               cx="24.555389"
               id="circle979"
               style="opacity:1;fill:#800080;fill-opacity:1;fill-rule:evenodd;stroke-width:0.01674577;paint-order:stroke fill markers" />
          </g>
        </g>
      </g>
    </g>
  </g>
</svg>
